{"title":"Kirkit (2015) x264 WEBrip (Upmix) AAC[HDMaN ExCluSive]","uid":12111766,"size":730065130,"categoryP":"video","categoryS":"hd___movies","magnet":"?xt=urn:btih:aa33ddc3b1f8e91887be93bb9d7b01187f68a876&amp;dn=Kirkit+%282015%29+x264+WEBrip+%28Upmix%29+AAC%5BHDMaN+ExCluSive%5D&amp;tr=udp%3A%2F%2Ftracker.openbittorrent.com%3A80&amp;tr=udp%3A%2F%2Fopen.demonii.com%3A1337&amp;tr=udp%3A%2F%2Ftracker.coppersurfer.tk%3A6969&amp;tr=udp%3A%2F%2Fexodus.desync.com%3A6969","seeders":0,"leechers":0,"uploader":"Urmit","files":8,"time":1436591923,"description":"[center]\n[size=6][color=blue][b]Kirkit (2015) x264 WEBrip (Upmix) AAC[HDMaN ExCluSive][/b][/color][/size]\n\n[code]Format                      : Matroska\nFormat version              : Version 4 / Version 2\nFile size                   : 696 MiB\nDuration                    : 2h 32mn\nOverall bit rate            : 637 Kbps\nMovie name                  : -=HDMaN=-\nEncoded date                : UTC 2015-07-11 03:01:58\nWriting application         : mkvmerge v6.1.0 ('Old Devil') built on Mar  2 2013 14:32:37\nWriting library             : libebml v1.3.0 + libmatroska v1.4.0\nDURATION                    : 02:32:48.608000000\nNUMBER_OF_FRAMES            : 286519\nNUMBER_OF_BYTES             : 440093184\n_STATISTICS_WRITING_APP     : mkvmerge v7.7.0 ('Six Voices') 32bit built on Feb 28 2015 23:23:00\n_STATISTICS_WRITING_DATE_UT : 2015-07-10 07:49:53\n_STATISTICS_TAGS            : BPS DURATION NUMBER_OF_FRAMES NUMBER_OF_BYTES\n\n[ * Video ]\nID                          : 1\nFormat                      : AVC\nFormat/Info                 : Advanced Video Codec\nFormat profile              : High@L3\nFormat settings, CABAC      : Yes\nFormat settings, ReFrames   : 4 frames\nCodec ID                    : V_MPEG4/ISO/AVC\nDuration                    : 2h 32mn\nBit rate                    : 251 Kbps\nWidth                       : 640 pixels\nHeight                      : 272 pixels\nDisplay aspect ratio        : 2.35:1\nFrame rate mode             : Constant\nFrame rate                  : 29.970 fps\nColor space                 : YUV\nChroma subsampling          : 4:2:0\nBit depth                   : 8 bits\nScan type                   : Progressive\nBits/(Pixel*Frame)          : 0.048\nStream size                 : 263 MiB (38%)\nTitle                       : -=HDMaN=-\nWriting library             : x264 core 146 r2538 121396c\nDefault                     : Yes\nForced                      : No\n\n\n[ * Audio ]\nID                          : 2\nFormat                      : AC-3\nFormat/Info                 : Audio Coding 3\nMode extension              : CM (complete main)\nFormat settings, Endianness : Big\nCodec ID                    : A_AC3\nDuration                    : 2h 32mn\nBit rate mode               : Constant\nBit rate                    : 384 Kbps\nChannel(s)                  : 6 channels\nChannel positions           : Front: L C R, Side: L R, LFE\nSampling rate               : 48.0 KHz\nCompression mode            : Lossy\nStream size                 : 420 MiB (60%)\nTitle                       : -=HDMaN=-\nDefault                     : Yes\nForced                      : No\n\n\nNote: &quot;JPEG&quot; less quality, don't judge by this.[/code]\n\n\n[img]http://s5.postimg.org/aooev22if/VTS_01_1084282.jpg[/img]\n[img]http://s5.postimg.org/qs0vuv41j/VTS_01_1131906.jpg[/img]\n[img]http://s5.postimg.org/ar8ahw65z/VTS_01_1011279.jpg[/img]\n[img]http://s5.postimg.org/wl6choqbb/VTS_01_1003969.jpg[/img][/center]","torrent":{"xt":"urn:btih:aa33ddc3b1f8e91887be93bb9d7b01187f68a876","amp;dn":"Kirkit+%282015%29+x264+WEBrip+%28Upmix%29+AAC%5BHDMaN+ExCluSive%5D","amp;tr":["udp%3A%2F%2Ftracker.openbittorrent.com%3A80","udp%3A%2F%2Fopen.demonii.com%3A1337","udp%3A%2F%2Ftracker.coppersurfer.tk%3A6969","udp%3A%2F%2Fexodus.desync.com%3A6969"],"infoHash":"aa33ddc3b1f8e91887be93bb9d7b01187f68a876","infoHashBuffer":{"type":"Buffer","data":[170,51,221,195,177,248,233,24,135,190,147,187,157,123,1,24,127,104,168,118]},"announce":[],"urlList":[]}}